HIERARCHY
ROOT Hips
{
  OFFSET 267.745 86.9975 -272.335
  CHANNELS 6 Xposition Yposition Zposition Zrotation Xrotation Yrotation
  JOINT LeftUpLeg
  {
    OFFSET 8.64259 1.95398 -2.38835
    CHANNELS 3 Zrotation Xrotation Yrotation
    JOINT LeftLeg
    {
      OFFSET 43.7702 0 0
      CHANNELS 3 Zrotation Xrotation Yrotation
      JOINT LeftFoot
      {
        OFFSET 40.6238 0 0
        CHANNELS 3 Zrotation Xrotation Yrotation
        JOINT LeftToeBase
        {
          OFFSET 12.7242 0 0
          CHANNELS 3 Zrotation Xrotation Yrotation
          End Site
          {
            OFFSET 0 0 0
          }
        }
      }
    }
  }
  JOINT RightUpLeg
  {
    OFFSET -8.2249 1.95398 -2.59336
    CHANNELS 3 Zrotation Xrotation Yrotation
    JOINT RightLeg
    {
      OFFSET 43.5653 0 0
      CHANNELS 3 Zrotation Xrotation Yrotation
      JOINT RightFoot
      {
        OFFSET 40.6238 0 0
        CHANNELS 3 Zrotation Xrotation Yrotation
        JOINT RightToeBase
        {
          OFFSET 12.7242 0 0
          CHANNELS 3 Zrotation Xrotation Yrotation
          End Site
          {
            OFFSET 0 0 0
          }
        }
      }
    }
  }
  JOINT Spine
  {
    OFFSET 0.165834 0.87714 6.61349
    CHANNELS 3 Zrotation Xrotation Yrotation
    JOINT Spine1
    {
      OFFSET 7.38963 1.71661e-005 0
      CHANNELS 3 Zrotation Xrotation Yrotation
      JOINT Spine2
      {
        OFFSET 11.9445 1.14441e-005 0
        CHANNELS 3 Zrotation Xrotation Yrotation
        JOINT Spine3
        {
          OFFSET 14.7254 4.19617e-005 0
          CHANNELS 3 Zrotation Xrotation Yrotation
          JOINT Spine4
          {
            OFFSET 10.9679 0 0
            CHANNELS 3 Zrotation Xrotation Yrotation
            JOINT RightShoulder
            {
              OFFSET 2.46616 -1.6653 3.69651
              CHANNELS 3 Zrotation Xrotation Yrotation
              JOINT RightArm
              {
                OFFSET 13.0012 0 0
                CHANNELS 3 Zrotation Xrotation Yrotation
                JOINT RightForeArm
                {
                  OFFSET 28.7848 1.52588e-005 0
                  CHANNELS 3 Zrotation Xrotation Yrotation
                  JOINT RightHand
                  {
                    OFFSET 26.5688 1.52588e-005 0
                    CHANNELS 3 Zrotation Xrotation Yrotation
                    End Site
                    {
                      OFFSET 0 0 0
                    }
                  }
                }
              }
            }
            JOINT LeftShoulder
            {
              OFFSET 2.38034 -1.29275 -3.7523
              CHANNELS 3 Zrotation Xrotation Yrotation
              JOINT LeftArm
              {
                OFFSET 16.3182 6.10352e-005 0
                CHANNELS 3 Zrotation Xrotation Yrotation
                JOINT LeftForeArm
                {
                  OFFSET 27.0901 0 0
                  CHANNELS 3 Zrotation Xrotation Yrotation
                  JOINT LeftHand
                  {
                    OFFSET 24.5451 1.52588e-005 0
                    CHANNELS 3 Zrotation Xrotation Yrotation
                    End Site
                    {
                      OFFSET 0 0 0
                    }
                  }
                }
              }
            }
            JOINT Neck
            {
              OFFSET 5.0226 -0.0266342 0
              CHANNELS 3 Zrotation Xrotation Yrotation
              JOINT Head
              {
                OFFSET 6.69364 2.86102e-005 0
                CHANNELS 3 Zrotation Xrotation Yrotation
                End Site
                {
                  OFFSET 0 0 0
                }
              }
            }
          }
        }
      }
    }
  }
}
MOTION
Frames:	17
Frame Time:	0.0416667
161.578 14.4924 28.4089 -6.10562 -9.10295 -91.4785 -171.825 10.6191 102.177 -24.4866 -3.07877 3.09362 63.3457 -3.36904 -32.8242 76.1078 -0.955943 14.4234 174.055 6.43155 73.7994 -24.0241 2.86516 -4.90611 58.9785 11.4332 42.0625 71.0245 4.12277 49.8192 -0.474749 7.11577 -90.3229 12.64 -1.09685 -0.516745 0.969451 -1.11853 -0.467977 -21.5675 -0.890846 -0.822515 -1.55487 -0.890834 -0.822522 104.903 -13.2603 -74.4101 50.8206 67.7064 -99.8307 -16.0302 -14.9208 -109.827 -27.7384 -1.15155 -0.431575 -79.4714 -15.8439 92.7085 -45.1522 -64.3121 -99.995 16.086 5.76347 -100.419 15.8067 -0.0504425 -4.11932 46.641 10.8659 27.373 -21.1281 -2.26746 -20.0134 
161.6 14.5439 28.5502 -5.7155 -8.41166 -91.8063 -171.845 10.6569 101.661 -24.4878 -3.71536 2.91266 64.2036 -3.16966 -32.7078 77.2975 -4.96625 1.73738 174.117 7.28671 73.2921 -24.4314 0.971038 -4.88248 59.7897 10.9131 40.8992 72.4661 3.28357 46.1938 -0.417712 6.97037 -90.2425 12.9318 -0.945648 -0.370387 1.2611 -0.96103 -0.328414 -21.2757 -0.79062 -0.637477 -1.26305 -0.790598 -0.637504 104.536 -12.4795 -75.3255 46.0992 67.5053 -93.974 -19.3986 -12.798 -110.646 -25.3696 -1.63301 2.19501 -80.0907 -14.647 91.0159 -44.0136 -65.3481 -97.4576 17.4175 5.51813 -100.144 13.3032 -0.125204 -4.62428 39.1675 7.88969 25.2916 -14.1552 -3.41374 -17.4384 
161.583 14.4823 28.5208 -5.56181 -8.14502 -91.8822 -171.646 10.5939 101.635 -24.3129 -3.60237 2.75297 64.1125 -3.1729 -32.4219 77.1024 -4.65883 2.65948 174.216 7.46165 73.2322 -24.3758 0.869517 -4.94086 59.6155 10.9645 41.0921 72.9831 3.37551 46.1838 -0.362757 6.85633 -90.2203 13.1601 -0.826115 -0.338215 1.48936 -0.84018 -0.301527 -21.047 -0.686282 -0.570866 -1.03435 -0.686267 -0.570859 103.96 -11.3312 -76.8287 41.428 68.3597 -87.8821 -20.7018 -11.9347 -111.336 -26.4197 -2.0413 3.68907 -80.7861 -14.2119 89.1852 -40.8692 -66.1899 -93.5376 18.3115 5.17172 -100.578 13.4137 0.182207 -2.40288 26.2209 4.99361 28.0616 0.175494 -6.31965 -19.6091 
161.564 14.4249 28.486 -5.5948 -7.64569 -91.8093 -171.299 10.3642 101.814 -24.1655 -3.58175 2.61597 64.0438 -3.18582 -32.197 76.8975 -4.73315 2.36004 174.427 7.52426 73.3609 -24.4408 0.695136 -5.06071 59.7621 10.9273 41.1885 72.1931 3.24559 46.216 -0.366503 6.90422 -90.1989 13.0645 -0.823188 -0.296737 1.3938 -0.835431 -0.260202 -21.1427 -0.695953 -0.530433 -1.13003 -0.695939 -0.530421 103.887 -11.0941 -77.0189 43.6648 67.9911 -89.5111 -21.364 -11.6833 -111.169 -25.2198 -1.91385 3.54264 -80.2471 -13.1217 90.4249 -43.5868 -65.9297 -95.4195 18.6534 5.29136 -100.737 13.0347 0.164781 -2.48263 29.6596 5.50456 25.1647 -2.60938 -5.03226 -17.2477 
161.564 14.3394 28.4826 -5.6116 -7.08362 -91.772 -171.056 10.1119 101.904 -24.1214 -3.86742 2.52809 64.3058 -3.13726 -32.2054 76.9628 -4.68492 2.5323 174.626 7.5636 73.4063 -24.3786 0.674916 -5.18568 59.7391 10.9717 41.5367 70.618 3.02235 46.4085 -0.359382 6.95637 -90.1596 12.9607 -0.789975 -0.222994 1.28994 -0.799049 -0.188019 -21.2466 -0.686447 -0.450125 -1.23396 -0.686442 -0.450112 103.938 -10.934 -76.8449 44.8245 67.5143 -90.4687 -21.33 -11.8937 -111.391 -26.6781 -2.13631 4.0051 -79.6658 -11.7011 91.8101 -46.0298 -65.3998 -96.8626 19.165 5.33198 -101.017 13.0577 0.257884 -1.7985 31.0898 5.12275 21.9045 -2.81011 -4.29115 -14.2707 
161.521 14.2466 28.4735 -5.60182 -6.52917 -91.6849 -170.695 9.89873 102.08 -23.9546 -3.86313 2.37629 64.1739 -3.19435 -32.0225 77.6997 -4.84918 2.24616 174.839 7.582 73.5405 -24.2701 0.324312 -5.28176 59.7245 10.8873 41.334 70.9738 3.1209 46.5257 -0.367106 7.00471 -90.1257 12.8642 -0.789172 -0.156505 1.19348 -0.79528 -0.121593 -21.3432 -0.705666 -0.386439 -1.33055 -0.705646 -0.386433 103.95 -10.0438 -76.6963 48.6862 66.748 -93.009 -20.2454 -12.6654 -110.916 -25.9766 -1.73034 2.47726 -79.1275 -10.5408 93.1773 -48.7971 -65.0445 -98.9008 18.8545 5.67131 -101.038 12.721 0.24903 -1.81 33.1174 5.06438 19.2479 -3.89303 -3.46274 -12.3272 
161.496 14.1815 28.4271 -5.43961 -5.95063 -91.6957 -170.38 9.8375 102.142 -23.8956 -4.03679 2.19184 64.2528 -3.21977 -31.868 77.2391 -4.76007 2.38202 175.045 7.80596 73.5509 -24.1934 0.030483 -5.35783 59.6531 10.8671 41.5088 71.5207 3.04607 45.9484 -0.373693 7.04595 -90.0719 12.7821 -0.776624 -0.0512503 1.1114 -0.778107 -0.016988 -21.4254 -0.725308 -0.282279 -1.41277 -0.725315 -0.282269 103.938 -9.90753 -76.713 51.1599 66.1429 -94.8477 -21.4451 -12.2969 -111.055 -25.2649 -1.84167 3.19948 -78.5015 -9.24084 94.871 -51.8043 -64.3265 -101.071 18.1568 6.08977 -101.139 13.4687 0.261926 -1.83606 35.8957 5.17577 16.635 -5.8912 -2.47428 -10.7173 
161.47 14.1458 28.3876 -5.43905 -5.45003 -91.5918 -169.963 9.62728 102.352 -23.6605 -3.97903 1.99845 64.0566 -3.25034 -31.596 77.3525 -4.92887 1.89032 175.244 7.91323 73.7159 -24.245 -0.364441 -5.43153 59.6507 10.8047 41.2341 71.0817 3.09115 46.3605 -0.374628 7.11639 -90.0405 12.6413 -0.763456 0.00860809 0.970602 -0.762333 0.0421882 -21.5662 -0.730755 -0.221257 -1.55361 -0.730738 -0.221255 103.975 -9.17197 -76.4987 55.3942 65.4047 -97.9144 -20.6805 -13.088 -110.744 -25.2605 -1.53486 1.79898 -78.0206 -7.82978 96.2192 -55.0055 -63.7599 -103.054 18.0958 6.34064 -101.48 13.2288 0.229985 -2.02961 38.6012 5.12418 14.3514 -7.94584 -1.72407 -8.95205 
161.509 14.1237 28.3828 -5.58817 -5.14359 -91.5531 -169.754 9.43817 102.472 -23.6379 -4.35485 1.92655 63.8263 -3.40071 -31.9298 77.8107 -5.04251 1.68562 175.348 7.85466 73.7706 -24.2482 -0.473309 -5.49225 59.4494 10.8379 41.3024 70.7002 3.2769 47.2161 -0.396423 7.19486 -89.9959 12.4847 -0.78549 0.0988138 0.81403 -0.78041 0.133294 -21.723 -0.778884 -0.141856 -1.71036 -0.778894 -0.141843 103.938 -8.83847 -76.5678 57.0316 65.0729 -98.8931 -21.742 -12.8421 -111.112 -25.6829 -1.85901 3.13654 -77.6297 -6.83036 97.3852 -57.0677 -63.2945 -104.675 18.0793 6.53534 -101.557 13.6731 0.286379 -1.69625 39.138 4.76043 12.6847 -7.25723 -1.40567 -8.038 
161.476 14.1527 28.3404 -5.69221 -5.0132 -91.2885 -169.517 9.56208 102.747 -24.0156 -4.30753 1.87725 64.1782 -3.37955 -31.8566 77.6239 -4.62701 2.90958 175.427 7.69008 74.0861 -24.1364 -0.531368 -5.43361 59.4862 10.7156 41.0051 71.4139 3.21897 46.5865 -0.422267 7.30392 -89.976 12.2669 -0.827876 0.140708 0.596149 -0.820853 0.176992 -21.9411 -0.831897 -0.114633 -1.92844 -0.831879 -0.114633 104.293 -8.03122 -75.3195 60.1092 63.1133 -100.51 -22.1901 -12.7211 -111.595 -26.2192 -1.92664 3.25569 -77.1124 -5.97219 98.9946 -59.8244 -62.3922 -107.234 18.2507 6.77403 -101.617 13.0733 0.298799 -1.49975 42.0942 4.47844 10.4516 -9.36696 -0.826468 -6.38559 
161.488 14.2081 28.3034 -5.78265 -5.21137 -91.2976 -169.488 9.62498 102.706 -24.1324 -4.12347 1.83029 64.0856 -3.31593 -31.3508 78.105 -4.51873 3.38391 175.43 7.57922 74.1243 -24.1625 -0.532642 -5.45045 59.3592 10.7336 40.9823 71.884 3.20091 46.2485 -0.502008 7.38889 -89.9524 12.0974 -0.975303 0.202396 0.426852 -0.965475 0.24511 -22.1113 -0.991038 -0.100114 -2.09861 -0.991032 -0.100114 104.417 -7.25795 -74.7821 62.4114 62.1229 -101.987 -22.1632 -12.9731 -111.712 -26.4939 -1.98576 3.41875 -76.6091 -5.23851 100.615 -62.241 -61.3674 -109.096 18.2739 6.95765 -101.85 12.8709 0.2732 -1.65472 44.0497 4.66695 9.75599 -10.5534 -0.421674 -6.30535 
161.497 14.279 28.3022 -5.85671 -5.64799 -91.3211 -169.702 9.78374 102.643 -24.3145 -4.32992 1.95618 63.9594 -3.35437 -31.4783 77.8076 -4.73514 2.62822 175.296 7.4149 74.0958 -24.1209 -0.669636 -5.37846 59.3786 10.6683 40.6467 73.5975 3.41614 45.9777 -0.577747 7.45563 -89.924 11.9644 -1.11275 0.272213 0.293935 -1.09971 0.320928 -22.2451 -1.14312 -0.0748496 -2.23241 -1.14312 -0.0748597 104.533 -6.56236 -74.2637 64.4846 61.3197 -102.97 -21.5749 -13.4034 -111.72 -26.7794 -1.80327 2.54274 -76.4054 -4.93291 101.291 -63.9616 -61.0919 -110.838 17.7883 7.3029 -101.752 13.0585 0.254697 -1.82266 45.1885 4.59301 9.11546 -11.2793 -0.253896 -5.74762 
161.509 14.4248 28.3303 -5.89358 -6.54241 -91.3716 -170.102 10.0561 102.386 -24.5195 -4.53685 2.10204 64.7041 -2.97113 -31.3725 76.3764 -4.18024 3.97514 174.956 7.34163 74.0659 -24.349 -0.419748 -5.19601 59.5177 10.6797 40.0743 73.2143 3.1687 45.4124 -0.673016 7.50329 -89.8945 11.87 -1.28871 0.34837 0.199637 -1.27214 0.404754 -22.3407 -1.33383 -0.0551321 -2.32799 -1.33383 -0.0551069 104.612 -6.82457 -74.0575 65.9329 61.3076 -104.477 -22.0257 -13.4818 -111.534 -26.4472 -1.89372 3.03657 -76.263 -4.63048 101.779 -64.46 -60.5894 -111.475 18.3319 7.21083 -101.774 13.437 0.264268 -1.81495 45.4419 4.1113 7.85574 -11.0932 -0.112949 -4.79144 
161.502 14.8036 28.1888 -5.47928 -8.08859 -91.463 -170.513 10.9859 101.918 -24.2793 -4.29222 1.99636 63.8321 -2.7924 -29.965 77.188 -4.38002 3.55854 174.88 7.83459 74.3177 -24.9861 0.441423 -5.07918 59.2674 10.8895 39.4427 74.9556 2.44255 42.441 -0.822867 7.50084 -89.8814 11.876 -1.58039 0.405897 0.205863 -1.56099 0.475072 -22.337 -1.62932 -0.0879702 -2.32434 -1.62931 -0.0879415 105.03 -5.43843 -72.3113 66.0446 59.9478 -103.238 -22.5236 -13.1574 -112.115 -27.0649 -2.11162 3.75746 -76.2754 -4.50919 101.757 -65.8391 -60.3542 -112.39 18.0717 7.38785 -102.017 13.9256 0.21418 -2.25413 45.798 3.60755 6.85037 -11.1719 -0.128128 -3.74624 
161.264 15.5842 27.4185 -5.20384 -11.8633 -91.1474 -170.683 12.8432 102.252 -23.3054 -1.81947 1.85144 60.8618 -3.78871 -31.3552 77.0668 -4.38454 3.41589 174.719 7.48972 75.6898 -25.1907 1.06519 -4.63888 58.9642 10.341 34.881 81.0094 2.39894 40.2506 -0.993322 7.44084 -89.8004 11.9983 -1.88079 0.601954 0.32858 -1.85246 0.684173 -22.2175 -1.97472 0.00865506 -2.20485 -1.97471 0.00863748 105.174 -1.366 -70.5282 63.5186 60.5336 -93.3549 -19.815 -13.4092 -114.421 -29.4195 -2.13253 3.14388 -76.9131 -4.79472 99.6694 -62.8142 -58.4191 -110.148 21.5542 6.03115 -102.794 12.6142 0.0952129 -2.91486 41.3676 1.82886 6.93173 -8.69428 -1.56615 -5.05375 
160.936 16.5294 26.113 -3.85156 -18.2287 -91.9713 -168.569 19.4903 102.066 -30.8387 -3.11101 -0.288771 57.957 -4.6616 -32.8841 59.1185 -2.76811 4.28366 174.213 8.60464 76.214 -27.1897 2.68014 -4.16373 62.6347 9.01481 29.9171 78.2152 -2.02147 28.2521 -1.27167 7.36881 -89.4153 12.1512 -2.25122 1.41606 0.481282 -2.1867 1.51378 -22.0676 -2.57266 0.673689 -2.055 -2.57267 0.673691 105.58 0.666234 -68.1101 63.6158 67.3984 -87.4886 -15.693 -15.498 -116.808 -26.9693 -1.34691 0.50878 -77.93 -4.39606 96.4683 -60.2853 -55.3927 -109.712 27.1428 3.75285 -103.941 11.8131 0.318805 -1.08686 39.4406 -1.46511 7.43399 -8.17786 -4.68558 -7.70088 
160.451 17.0578 24.4997 -3.85433 -25.238 -93.8812 -160.735 31.1717 102.313 -55.1714 -3.14262 -3.1208 57.7582 -3.47439 -24.8968 44.1356 -1.55227 8.92079 172.888 8.29948 75.9681 -29.0895 2.64832 -3.13688 64.8743 7.32832 22.8616 71.6187 -5.62547 16.9023 -1.59451 7.34885 -88.9465 12.2025 -2.6705 2.4001 0.531875 -2.56231 2.51527 -22.0171 -3.26822 1.48628 -2.00449 -3.26821 1.48625 105.923 5.71034 -63.5205 68.1987 69.6167 -90.8917 -16.1977 -17.0613 -110.202 -23.5557 -0.674943 -1.89929 -79.1239 -4.29271 92.5877 -54.4633 -52.8015 -108.075 33.4015 1.96218 -101.813 11.351 0.345731 -0.745735 37.4311 -3.86056 8.75764 -7.71707 -7.35265 -10.9573 
